<svg width="23" height="22" viewBox="0 0 23 22" fill="none" xmlns="http://www.w3.org/2000/svg">
<rect width="22" height="22" transform="translate(0.5)" fill="white"/>
<path d="M3.67291 16.218V11C3.67291 8.92412 4.49755 6.93327 5.96541 5.46541C7.43327 3.99755 9.42412 3.17291 11.5 3.17291C13.5759 3.17291 15.5667 3.99755 17.0346 5.46541C18.5024 6.93327 19.3271 8.92412 19.3271 11V16.218" stroke="#7D7D7D" stroke-width="1.5" stroke-linecap="round" stroke-linejoin="round"/>
<path d="M19.3271 17.0877C19.3271 17.549 19.1438 17.9914 18.8176 18.3176C18.4914 18.6438 18.049 18.827 17.5877 18.827H16.718C16.2567 18.827 15.8143 18.6438 15.4881 18.3176C15.1619 17.9914 14.9787 17.549 14.9787 17.0877V14.4787C14.9787 14.0174 15.1619 13.575 15.4881 13.2488C15.8143 12.9226 16.2567 12.7393 16.718 12.7393H19.3271V17.0877ZM3.67291 17.0877C3.67291 17.549 3.85616 17.9914 4.18236 18.3176C4.50855 18.6438 4.95096 18.827 5.41226 18.827H6.28194C6.74324 18.827 7.18565 18.6438 7.51184 18.3176C7.83803 17.9914 8.02129 17.549 8.02129 17.0877V14.4787C8.02129 14.0174 7.83803 13.575 7.51184 13.2488C7.18565 12.9226 6.74324 12.7393 6.28194 12.7393H3.67291V17.0877Z" fill="#7D7D7D" stroke="#7D7D7D" stroke-width="1.5" stroke-linecap="round" stroke-linejoin="round"/>
</svg>
