<svg width="22" height="22" viewBox="0 0 22 22" fill="none" xmlns="http://www.w3.org/2000/svg">
<rect width="22" height="22" fill="white"/>
<path d="M19.0895 3.50784V8.71969H13.8777" stroke="#7D7D7D" stroke-width="1.5" stroke-linecap="round" stroke-linejoin="round"/>
<path d="M17.9427 13.6042C17.3781 15.2025 16.3093 16.5739 14.8974 17.5118C13.4855 18.4498 11.8071 18.9034 10.1149 18.8044C8.42276 18.7055 6.80862 18.0592 5.51574 16.963C4.22285 15.8668 3.32126 14.3801 2.94683 12.727C2.57239 11.0738 2.7454 9.34371 3.43978 7.79743C4.13416 6.25114 5.31229 4.97243 6.79664 4.15397C8.28099 3.33551 9.99113 3.02166 11.6694 3.25971C13.3476 3.49775 14.903 4.2748 16.1012 5.47375L18.7479 8.08395" stroke="#7D7D7D" stroke-width="1.5" stroke-linecap="round" stroke-linejoin="round"/>
</svg>
